<svg width="16" height="16" viewBox="0 0 16 16" fill="none" xmlns="http://www.w3.org/2000/svg">
<path d="M13.01 12.6899C13.01 13.942 11.9949 14.9571 10.7428 14.9571C10.72 14.9571 10.697 14.9567 10.6743 14.956L10.6807 14.9301C10.5721 13.7537 9.65401 12.8146 8.49312 12.6839C8.40232 12.6879 8.30486 12.6901 8.21342 12.6901C6.62493 12.6901 5.18499 12.0549 4.13315 11.0247C3.0532 9.96647 2.38281 8.49089 2.38281 6.85948C2.38281 3.63935 4.9933 1.0293 8.21342 1.0293C9.60227 1.0293 10.8776 1.51507 11.8794 2.32542L11.8558 2.33164C10.4972 2.20993 8.96516 2.39754 7.7914 3.09283C5.70103 4.33077 4.69556 7.48929 6.8748 9.15784C7.02763 9.27483 7.22748 9.35297 7.34598 9.50667C7.45717 9.65049 7.51406 9.83016 7.51985 10.0105C7.53252 10.4031 7.31893 10.7815 7.0388 11.043C7.01411 11.0662 6.98878 11.0883 6.96302 11.1095C6.96302 11.1095 7.6377 11.4367 8.51716 10.9434C8.99156 10.6772 10.0309 10.3119 10.9119 10.4344L10.9553 10.4327C11.4445 10.4784 11.889 10.6798 12.2377 10.9865C12.2514 10.9986 12.2651 11.0108 12.2787 11.0235C12.3482 11.0868 12.4135 11.1553 12.4738 11.2274C12.808 11.6221 13.0094 12.1324 13.0094 12.6903L13.01 12.6899Z" fill="url(#paint0_linear_2725_340)"/>
<path d="M10.2288 7.15185C10.5348 7.07225 10.6721 6.58164 10.5354 6.05604C10.3986 5.53043 10.0398 5.16887 9.73375 5.24846C9.42775 5.32806 9.29052 5.81867 9.42723 6.34427C9.56394 6.86988 9.92283 7.23144 10.2288 7.15185Z" fill="url(#paint1_linear_2725_340)"/>
<path d="M13.0452 6.41942C13.3512 6.33983 13.4885 5.84922 13.3518 5.32362C13.215 4.79801 12.8562 4.43645 12.5502 4.51604C12.2442 4.59563 12.1069 5.08624 12.2436 5.61185C12.3804 6.13745 12.7392 6.49902 13.0452 6.41942Z" fill="url(#paint2_linear_2725_340)"/>
<defs>
<linearGradient id="paint0_linear_2725_340" x1="7.69641" y1="1.0293" x2="7.69641" y2="14.9571" gradientUnits="userSpaceOnUse">
<stop stop-color="#8224E3"/>
<stop offset="1" stop-color="#4B124B"/>
</linearGradient>
<linearGradient id="paint1_linear_2725_340" x1="9.73375" y1="5.24846" x2="10.2288" y2="7.15185" gradientUnits="userSpaceOnUse">
<stop stop-color="#8224E3"/>
<stop offset="1" stop-color="#4B124B"/>
</linearGradient>
<linearGradient id="paint2_linear_2725_340" x1="12.5502" y1="4.51604" x2="13.0452" y2="6.41942" gradientUnits="userSpaceOnUse">
<stop stop-color="#8224E3"/>
<stop offset="1" stop-color="#4B124B"/>
</linearGradient>
</defs>
</svg>
